# xmcd
# 
# Track frame offsets:
#     150
#     14240
#     24510
#     32222
#     45675
#     57935
# 
# Disc length: 1002
# 
# Revision: 4
# Processed by: cddbd v1.5.2PL0 Copyright (c) Steve Scherf et al.
# Submitted via: fre:ac v1.1beta1pre5
# 
DISCID=4d03e806
DTITLE=Ryker's - First Blood
DYEAR=1995
DGENRE=Hardcore
TTITLE0=First blood
TTITLE1=Stranglehold
TTITLE2=Slowly
TTITLE3=Ricocht
TTITLE4=What We Once Said
TTITLE5=Together (originally by Youth Of Today)
EXTD=YEAR: 1995
EXTT0=
EXTT1=
EXTT2=
EXTT3=
EXTT4=
EXTT5=
PLAYORDER=
